<svg width="208" height="52" viewBox="0 0 208 52" fill="none" xmlns="http://www.w3.org/2000/svg">
<path d="M66.367 35.1213C66.367 35.8971 66.1978 36.6147 65.8712 37.3088C65.5445 38.003 65.072 38.6097 64.4828 39.1464C63.8819 39.6714 63.1702 40.1031 62.3594 40.4181C61.5485 40.7331 60.6443 40.8906 59.6468 40.8906C58.7543 40.8906 57.9551 40.8381 57.2492 40.7331C56.5434 40.6281 55.8725 40.4706 55.2541 40.2489C54.6241 40.0272 54.0349 39.7355 53.4574 39.3972C52.8799 39.0414 52.2907 38.6214 51.6724 38.1255L54.49 35.2788C55.3008 35.9613 56.1175 36.4455 56.905 36.7197C57.6926 36.9938 58.5443 37.1397 59.4601 37.1397C59.8393 37.1397 60.1951 37.0872 60.5218 36.9705C60.8485 36.8655 61.1518 36.708 61.3852 36.5272C61.636 36.3405 61.8285 36.1188 61.9744 35.8563C62.1202 35.5938 62.196 35.3196 62.196 35.0163C62.196 34.6896 62.1319 34.398 62.0094 34.153C61.8927 33.9021 61.6827 33.6571 61.3677 33.4063C61.0643 33.1729 60.6327 32.9221 60.0843 32.6713C59.536 32.4204 58.8359 32.1462 57.9842 31.8429C57.2375 31.5687 56.5142 31.2537 55.82 30.9096C55.1258 30.5537 54.525 30.1337 53.9999 29.6379C53.4749 29.142 53.0549 28.5645 52.7399 27.8937C52.4249 27.2228 52.2674 26.4411 52.2674 25.5311C52.2674 24.6678 52.4366 23.8511 52.7924 23.1161C53.1482 22.3811 53.6208 21.7511 54.2216 21.2261C54.8225 20.701 55.5342 20.2927 56.345 20.0069C57.1559 19.721 58.0367 19.5752 58.9701 19.5752C60.5452 19.5752 61.8694 19.7852 62.9427 20.1935C64.0161 20.6019 64.9728 21.2027 65.8128 21.9902L63.0477 24.7845C62.5344 24.2886 61.9569 23.9036 61.3327 23.6411C60.7027 23.3786 59.956 23.2503 59.1043 23.2503C58.7134 23.2503 58.3459 23.3144 58.0134 23.4311C57.6867 23.5478 57.395 23.7053 57.1617 23.9036C56.9284 24.1019 56.73 24.3353 56.5842 24.5978C56.4384 24.8603 56.3625 25.1345 56.3625 25.4261C56.3625 25.7528 56.4267 26.0445 56.5725 26.307C56.7009 26.5695 56.94 26.832 57.2667 27.0828C57.5934 27.3337 58.0251 27.5787 58.5618 27.8295C59.0984 28.0803 59.7693 28.3428 60.5685 28.6404C61.5894 28.9962 62.4702 29.387 63.2052 29.8187C63.9403 30.2504 64.5411 30.7112 65.002 31.2187C65.4628 31.7321 65.8012 32.3096 66.0228 32.9513C66.2445 33.5871 66.367 34.3105 66.367 35.1213Z" fill="#193375"/>
<path d="M81.4992 38.2716C80.7525 39.1233 79.8483 39.7766 78.7866 40.2141C77.7249 40.6458 76.6223 40.8849 75.4556 40.8849C74.3823 40.8849 73.3731 40.6866 72.4105 40.2958C71.4538 39.9049 70.6255 39.3624 69.9196 38.6682C69.2138 37.9741 68.6596 37.1457 68.2512 36.2007C67.8429 35.244 67.6329 34.2057 67.6329 33.109C67.6329 32.0181 67.8312 30.9973 68.2512 30.0523C68.6596 29.1072 69.2079 28.2847 69.9021 27.5847C70.5963 26.8905 71.4247 26.3364 72.3814 25.9339C73.3381 25.5255 74.3589 25.333 75.4498 25.333C76.5757 25.333 77.6549 25.543 78.6641 25.9514C79.6733 26.3597 80.5658 26.9897 81.3125 27.8239L78.8332 30.3556C78.4541 29.8598 78.0049 29.4514 77.4682 29.1247C76.9315 28.7981 76.2723 28.6406 75.514 28.6406C74.9481 28.6406 74.4114 28.7572 73.9156 28.9964C73.4197 29.2297 72.9706 29.5622 72.5797 29.9531C72.2005 30.3614 71.8972 30.8339 71.6755 31.3706C71.4538 31.919 71.3488 32.4965 71.3488 33.1148C71.3488 33.7332 71.4538 34.3107 71.6755 34.859C71.8972 35.4074 72.2005 35.8799 72.568 36.2765C72.9472 36.6849 73.3789 36.9999 73.9039 37.2332C74.4173 37.4666 74.9539 37.5891 75.514 37.5891C76.249 37.5891 76.914 37.4199 77.509 37.064C78.1099 36.7082 78.5824 36.2649 78.9382 35.7282L81.4992 38.2716Z" fill="#193375"/>
<path d="M96.1821 40.4945H92.4954V31.6335C92.4954 31.1085 92.4137 30.636 92.2445 30.2451C92.087 29.8368 91.8653 29.5101 91.6028 29.2476C91.3403 28.9851 91.0253 28.7868 90.6695 28.6584C90.3136 28.5301 89.9461 28.4601 89.5786 28.4601C89.0127 28.4601 88.4761 28.5534 87.951 28.7226C87.4377 28.8918 86.9418 29.1309 86.4577 29.4459V40.512H82.7709V19.2666H86.4577L86.481 26.5409C87.0293 26.1092 87.6594 25.7942 88.3827 25.5959C89.1061 25.3859 89.7828 25.2925 90.4536 25.2925C91.2295 25.2925 91.947 25.4092 92.6295 25.66C93.312 25.9109 93.9129 26.2901 94.4496 26.7859C94.9746 27.2817 95.3946 27.9293 95.7096 28.6876C96.0246 29.4459 96.1705 30.356 96.1705 31.3885V40.4945H96.1821Z" fill="#193375"/>
<path d="M113.776 33.0915C113.776 34.2057 113.566 35.2265 113.158 36.1715C112.749 37.1165 112.189 37.9391 111.466 38.6391C110.743 39.3333 109.908 39.8699 108.946 40.2783C107.989 40.6866 106.951 40.8791 105.866 40.8791C104.775 40.8791 103.754 40.6808 102.797 40.2783C101.841 39.8699 101.001 39.3216 100.295 38.6274C99.589 37.9332 99.0114 37.1049 98.6031 36.1599C98.1948 35.2148 97.9847 34.194 97.9847 33.1031C97.9847 32.0298 98.1947 31.0206 98.6148 30.0756C99.0348 29.1306 99.6006 28.3081 100.318 27.5964C101.042 26.8905 101.864 26.3364 102.821 25.9339C103.777 25.5255 104.787 25.333 105.86 25.333C106.951 25.333 107.983 25.5313 108.94 25.9339C109.908 26.3422 110.748 26.8789 111.46 27.573C112.166 28.2672 112.744 29.0956 113.152 30.0406C113.572 30.9798 113.776 32.0006 113.776 33.0915ZM110.095 33.0915C110.095 32.4615 109.99 31.8723 109.768 31.3181C109.547 30.7698 109.243 30.2973 108.864 29.8889C108.485 29.4806 108.036 29.1539 107.528 28.9322C107.015 28.6989 106.478 28.5939 105.889 28.5939C105.312 28.5939 104.763 28.7106 104.25 28.9322C103.737 29.1539 103.293 29.4806 102.914 29.8889C102.535 30.2973 102.232 30.7814 102.01 31.3181C101.788 31.8665 101.683 32.4615 101.683 33.0915C101.683 33.7215 101.788 34.3107 102.01 34.859C102.232 35.4073 102.535 35.8799 102.914 36.2882C103.293 36.6965 103.742 37.0232 104.25 37.2449C104.763 37.4666 105.312 37.5832 105.889 37.5832C106.467 37.5832 107.015 37.4666 107.528 37.2449C108.042 37.0115 108.485 36.6965 108.864 36.2882C109.243 35.8799 109.547 35.3957 109.768 34.859C109.978 34.3107 110.095 33.7215 110.095 33.0915Z" fill="#193375"/>
<path d="M130.851 33.0915C130.851 34.2057 130.641 35.2265 130.232 36.1715C129.824 37.1165 129.264 37.9391 128.541 38.6391C127.817 39.3333 126.977 39.8699 126.021 40.2783C125.064 40.6866 124.026 40.8791 122.941 40.8791C121.85 40.8791 120.829 40.6808 119.872 40.2783C118.915 39.8699 118.075 39.3216 117.37 38.6274C116.664 37.9332 116.086 37.1049 115.678 36.1599C115.269 35.2148 115.059 34.194 115.059 33.1031C115.059 32.0298 115.269 31.0206 115.689 30.0756C116.109 29.1306 116.675 28.3081 117.393 27.5964C118.116 26.8905 118.939 26.3364 119.895 25.9339C120.852 25.5255 121.861 25.333 122.941 25.333C124.031 25.333 125.064 25.5313 126.021 25.9339C126.989 26.3422 127.829 26.8789 128.541 27.573C129.247 28.2672 129.824 29.0956 130.232 30.0406C130.652 30.9798 130.851 32.0006 130.851 33.0915ZM127.164 33.0915C127.164 32.4615 127.059 31.8723 126.837 31.3181C126.616 30.7698 126.312 30.2973 125.933 29.8889C125.554 29.4806 125.105 29.1539 124.597 28.9322C124.084 28.6989 123.547 28.5939 122.958 28.5939C122.381 28.5939 121.832 28.7106 121.319 28.9322C120.805 29.1539 120.362 29.4806 119.983 29.8889C119.604 30.2973 119.3 30.7814 119.079 31.3181C118.857 31.8665 118.752 32.4615 118.752 33.0915C118.752 33.7215 118.857 34.3107 119.079 34.859C119.3 35.4073 119.604 35.8799 119.983 36.2882C120.362 36.6965 120.811 37.0232 121.319 37.2449C121.832 37.4666 122.381 37.5832 122.958 37.5832C123.536 37.5832 124.084 37.4666 124.597 37.2449C125.111 37.0115 125.554 36.6965 125.933 36.2882C126.312 35.8799 126.616 35.3957 126.837 34.859C127.059 34.3107 127.164 33.7215 127.164 33.0915Z" fill="#193375"/>
<path d="M138.901 40.4184C138.615 40.5467 138.283 40.6692 137.915 40.7451C137.548 40.8267 137.168 40.8734 136.772 40.8734C136.223 40.8734 135.698 40.7976 135.197 40.6517C134.701 40.5059 134.252 40.2726 133.873 39.9459C133.493 39.6192 133.202 39.1992 132.98 38.6742C132.758 38.1492 132.653 37.5192 132.653 36.7842V19.2139H136.416V36.1425C136.416 36.7608 136.533 37.1808 136.783 37.4142C137.034 37.6475 137.32 37.7525 137.664 37.7525C138.096 37.7525 138.504 37.6242 138.895 37.3734V40.4184H138.901Z" fill="#193375"/>
<path d="M154.36 35.1213C154.36 35.8971 154.191 36.6147 153.864 37.3088C153.532 38.003 153.065 38.6097 152.47 39.1464C151.869 39.6714 151.157 40.1031 150.346 40.4181C149.536 40.7331 148.626 40.8906 147.634 40.8906C146.741 40.8906 145.942 40.8381 145.23 40.7331C144.525 40.6281 143.854 40.4706 143.235 40.2489C142.605 40.0272 142.016 39.7355 141.439 39.3972C140.861 39.0414 140.272 38.6214 139.654 38.1255L142.471 35.2788C143.282 35.9613 144.099 36.4455 144.886 36.7197C145.674 36.9938 146.52 37.1397 147.441 37.1397C147.821 37.1397 148.176 37.0872 148.497 36.9705C148.83 36.8655 149.127 36.708 149.361 36.5272C149.611 36.3405 149.81 36.1188 149.95 35.8563C150.09 35.5938 150.171 35.3196 150.171 35.0163C150.171 34.6896 150.101 34.398 149.991 34.153C149.874 33.9021 149.658 33.6571 149.343 33.4063C149.046 33.1729 148.608 32.9221 148.06 32.6713C147.511 32.4204 146.811 32.1462 145.96 31.8429C145.213 31.5687 144.495 31.2537 143.795 30.9096C143.101 30.5537 142.5 30.1337 141.975 29.6379C141.45 29.142 141.03 28.5645 140.715 27.8937C140.4 27.2228 140.243 26.4411 140.243 25.5311C140.243 24.6678 140.412 23.8511 140.768 23.1161C141.124 22.3811 141.596 21.7511 142.197 21.2261C142.798 20.701 143.51 20.2927 144.32 20.0069C145.131 19.721 146.012 19.5752 146.94 19.5752C148.509 19.5752 149.839 19.7852 150.912 20.1935C151.986 20.6019 152.942 21.2027 153.782 21.9902L151.046 24.7903C150.533 24.2944 149.956 23.9094 149.326 23.6469C148.696 23.3844 147.949 23.2561 147.091 23.2561C146.7 23.2561 146.333 23.3203 146.006 23.4369C145.68 23.5536 145.394 23.7111 145.155 23.9094C144.921 24.1078 144.723 24.3411 144.577 24.6036C144.437 24.8661 144.355 25.1403 144.355 25.432C144.355 25.7586 144.42 26.0503 144.56 26.3128C144.694 26.5753 144.927 26.8378 145.254 27.0887C145.58 27.3395 146.012 27.5845 146.549 27.8353C147.085 28.0862 147.756 28.3487 148.556 28.6462C149.576 29.002 150.457 29.3929 151.192 29.8245C151.927 30.2562 152.528 30.7171 152.989 31.2246C153.45 31.7379 153.788 32.3154 154.01 32.9571C154.243 33.5871 154.36 34.3105 154.36 35.1213Z" fill="#193375"/>
<path d="M170.239 40.4945H165.858L159.919 33.8619V40.4945H156.157V19.2666H159.919V31.9718L165.099 25.7067H169.405L163.332 32.9052L170.239 40.4945Z" fill="#193375"/>
<path d="M174.841 23.1108H171.003V19.2666H174.841V23.1108ZM174.789 40.4945H171.05V25.6659H174.789V40.4945Z" fill="#193375"/>
<path d="M192.949 33.0624C192.949 33.2957 192.937 33.5466 192.908 33.8091C192.885 34.0716 192.855 34.3341 192.815 34.6082H180.99C181.118 35.0399 181.317 35.4366 181.567 35.8274C181.812 36.2066 182.116 36.5508 182.472 36.825C182.822 37.0991 183.23 37.3208 183.691 37.4958C184.134 37.6533 184.636 37.7466 185.184 37.7466C185.855 37.7466 186.52 37.63 187.179 37.4083C187.85 37.175 188.399 36.8716 188.848 36.4749L191.181 38.8083C190.16 39.5842 189.145 40.1208 188.177 40.4358C187.203 40.7509 186.158 40.9084 185.068 40.9084C183.948 40.9084 182.915 40.6984 181.958 40.29C181.002 39.8817 180.162 39.3217 179.45 38.6217C178.744 37.9275 178.178 37.0991 177.77 36.1541C177.361 35.2091 177.151 34.1999 177.151 33.1266C177.151 32.0532 177.361 31.044 177.77 30.099C178.178 29.154 178.744 28.3256 179.462 27.6315C180.179 26.9373 181.013 26.3714 181.964 25.9689C182.921 25.5606 183.942 25.3506 185.033 25.3506C186.071 25.3506 187.074 25.5489 188.019 25.9281C188.964 26.3073 189.816 26.8439 190.551 27.5265C191.292 28.209 191.864 29.0198 192.295 29.9648C192.727 30.8748 192.949 31.9249 192.949 33.0624ZM189.081 31.6332C188.795 30.6882 188.27 29.9415 187.529 29.364C186.794 28.7865 185.943 28.5123 185.015 28.5123C184.099 28.5123 183.271 28.7981 182.536 29.364C181.801 29.9415 181.293 30.6882 181.007 31.6332H189.081Z" fill="#193375"/>
<path d="M205.59 36.3406C205.59 37.0756 205.421 37.729 205.077 38.2948C204.738 38.8606 204.295 39.3448 203.741 39.724C203.186 40.1032 202.574 40.3948 201.891 40.5873C201.209 40.7857 200.532 40.8732 199.861 40.8732C198.736 40.8732 197.697 40.6632 196.74 40.2432C195.795 39.8232 194.955 39.1523 194.232 38.2365L196.466 35.9789C196.91 36.5448 197.423 36.9881 197.995 37.3031C198.572 37.6181 199.202 37.7756 199.873 37.7756C200.445 37.7756 200.929 37.6706 201.314 37.4606C201.693 37.2506 201.891 36.9239 201.891 36.5039C201.891 36.0606 201.617 35.6931 201.081 35.3897C200.532 35.0864 199.768 34.8006 198.771 34.5089C198.193 34.3397 197.627 34.1181 197.079 33.8556C196.53 33.593 196.04 33.2664 195.626 32.8872C195.189 32.508 194.85 32.0589 194.6 31.563C194.355 31.0672 194.226 30.5013 194.226 29.848C194.226 29.1246 194.395 28.483 194.722 27.9229C195.055 27.3454 195.498 26.8729 196.035 26.4938C196.577 26.1146 197.19 25.8112 197.872 25.6129C198.555 25.4029 199.249 25.3096 199.943 25.3096C202.201 25.3096 204.044 26.1613 205.491 27.8646L203.286 30.093C202.854 29.568 202.37 29.148 201.833 28.833C201.285 28.5296 200.69 28.3721 200.036 28.3721C199.815 28.3721 199.576 28.3955 199.325 28.4655C199.08 28.5296 198.852 28.6113 198.631 28.728C198.421 28.833 198.234 28.9905 198.106 29.1596C197.977 29.3288 197.901 29.5388 197.901 29.7605C197.901 30.1513 198.164 30.4955 198.683 30.7813C199.208 31.0672 199.955 31.3588 200.923 31.6447C201.553 31.8313 202.154 32.0764 202.72 32.368C203.286 32.6539 203.782 32.998 204.207 33.3772C204.622 33.7564 204.966 34.1881 205.217 34.6897C205.456 35.1972 205.59 35.7222 205.59 36.3406Z" fill="#193375"/>
<path d="M34.866 22.8652C34.866 16.3084 29.5517 11 23.0006 11C16.4496 11 11.1353 16.3143 11.1353 22.8652C11.1353 28.617 15.2246 33.4062 20.6556 34.4971L20.5856 37.5655L25.0424 36.1304V34.5437C30.6192 33.5754 34.866 28.722 34.866 22.8652Z" fill="url(#paint0_linear_2347_5968)"/>
<path d="M46.8305 29.1077C46.8305 22.5918 41.5512 17.3125 35.0352 17.3125C32.6609 17.3125 30.3158 18.0358 28.3616 19.3775C26.4482 20.6901 24.9432 22.5684 24.0798 24.721C23.7065 25.6485 23.4556 26.6227 23.3331 27.6202C23.1814 28.816 23.1989 30.1052 22.4114 31.0969C21.6531 32.0536 20.4688 32.6136 19.3255 32.9694L12.0336 40.9029C12.0336 40.9029 35.3502 40.9029 35.3385 40.8854C41.7087 40.7221 46.8305 35.5187 46.8305 29.1077Z" fill="url(#paint1_linear_2347_5968)"/>
<path d="M12.5586 40.9081C18.39 40.9081 23.1173 36.1808 23.1173 30.3495C23.1173 24.5182 18.39 19.791 12.5586 19.791C6.72722 19.791 1.99994 24.5182 1.99994 30.3495C1.99994 36.1808 6.72722 40.9081 12.5586 40.9081Z" fill="url(#paint2_linear_2347_5968)"/>
<defs>
<linearGradient id="paint0_linear_2347_5968" x1="23.1894" y1="16.0702" x2="22.6283" y2="35.8942" gradientUnits="userSpaceOnUse">
<stop stop-color="#6991F7"/>
<stop offset="1" stop-color="#94B1FD"/>
</linearGradient>
<linearGradient id="paint1_linear_2347_5968" x1="42.5841" y1="24.0413" x2="25.5653" y2="35.4498" gradientUnits="userSpaceOnUse">
<stop stop-color="#FF6E6E"/>
<stop offset="1" stop-color="#FF9D00"/>
</linearGradient>
<linearGradient id="paint2_linear_2347_5968" x1="3.81936" y1="21.611" x2="13.9184" y2="31.7102" gradientUnits="userSpaceOnUse">
<stop stop-color="#AC77FF"/>
<stop offset="1" stop-color="#834DD8"/>
</linearGradient>
</defs>
</svg>
